<svg xmlns="http://www.w3.org/2000/svg" width="800" height="450" viewBox="0 0 800 450">
  <defs>
    <linearGradient id="grad1" x1="0%" y1="0%" x2="100%" y2="100%">
      <stop offset="0%" style="stop-color:#1e40af;stop-opacity:1" />
      <stop offset="100%" style="stop-color:#3b82f6;stop-opacity:1" />
    </linearGradient>
  </defs>
  <rect width="800" height="450" fill="url(#grad1)" />
  <!-- Graphique stylisé -->
  <polyline points="100,350 200,250 300,300 400,180 500,220 600,150 700,200" 
           stroke="white" stroke-width="6" fill="none" stroke-linecap="round" stroke-linejoin="round"/>
  <circle cx="100" cy="350" r="8" fill="white"/>
  <circle cx="200" cy="250" r="8" fill="white"/>
  <circle cx="300" cy="300" r="8" fill="white"/>
  <circle cx="400" cy="180" r="8" fill="white"/>
  <circle cx="500" cy="220" r="8" fill="white"/>
  <circle cx="600" cy="150" r="8" fill="white"/>
  <circle cx="700" cy="200" r="8" fill="white"/>
  <!-- Icônes de maison stylisées -->
  <path d="M150,100 L150,70 L180,70 L180,100 Z" fill="white" opacity="0.6"/>
  <path d="M120,100 L210,100 L165,60 Z" fill="white" opacity="0.8"/>
  <path d="M650,100 L650,70 L680,70 L680,100 Z" fill="white" opacity="0.6"/>
  <path d="M620,100 L710,100 L665,60 Z" fill="white" opacity="0.8"/>
  <text x="400" y="225" font-family="Arial" font-size="42" font-weight="bold" text-anchor="middle" fill="white">Prix immobiliers 2025</text>
  <text x="400" y="275" font-family="Arial" font-size="24" text-anchor="middle" fill="white" opacity="0.9">Analyse des tendances du marché</text>
</svg> 